# Blender v3.2.1 OBJ File: ''
# www.blender.org
mtllib bullet.mtl
o Object.002_Part-3005_dot_dat
v -0.395000 0.453965 0.395000
v -0.395000 0.453965 0.395000
v -0.395000 0.453965 0.395000
v -0.395000 0.453965 -0.395000
v -0.395000 0.453965 -0.395000
v -0.395000 0.453965 -0.395000
v -0.395000 -0.497463 0.395000
v -0.395000 -0.497463 0.395000
v -0.395000 -0.497463 0.395000
v -0.395000 -0.497463 -0.395000
v -0.395000 -0.497463 -0.395000
v -0.395000 -0.497463 -0.395000
v -0.236736 0.612536 -0.027106
v -0.237000 0.612536 -0.000000
v -0.228223 0.453965 0.089030
v -0.237000 0.295394 0.237000
v -0.237000 0.295394 0.237000
v -0.237000 0.295394 0.237000
v -0.237000 0.295394 -0.237000
v -0.237000 0.295394 -0.237000
v -0.237000 0.295394 -0.237000
v -0.237000 -0.497463 0.237000
v -0.237000 -0.497463 0.237000
v -0.237000 -0.497463 0.237000
v -0.237000 -0.497463 -0.237000
v -0.237000 -0.497463 -0.237000
v -0.237000 -0.497463 -0.237000
v -0.220737 0.612536 0.096659
v -0.232925 0.612536 0.046349
v -0.232925 0.612536 -0.046350
v -0.220737 0.453965 -0.096660
v -0.213080 0.612536 0.104904
v -0.213080 0.612536 -0.104905
v -0.201571 0.612536 -0.129286
v -0.178701 0.612536 0.156452
v -0.178701 0.612536 -0.156453
v -0.129286 0.612536 0.201571
v -0.129286 0.453965 -0.201572
v -0.144286 0.612536 0.188036
v -0.144286 0.612536 -0.188036
v -0.096660 0.612536 -0.220737
v -0.096660 0.453965 0.220737
v -0.104905 0.612536 0.213080
v -0.104905 0.612536 -0.213080
v -0.027106 0.612536 0.236736
v -0.046349 0.612536 0.232925
v -0.046349 0.612536 -0.232925
v -0.027106 0.453965 -0.236737
v -0.000000 0.612536 0.237000
v 0.000000 0.612536 -0.237000
v 0.089031 0.612536 -0.228223
v 0.089030 0.453965 0.228223
v 0.046349 0.612536 0.232925
v 0.096660 0.612536 0.220737
v 0.046350 0.612536 -0.232925
v 0.096660 0.453965 -0.220737
v 0.104905 0.612536 0.213080
v 0.104905 0.612536 -0.213080
v 0.144286 0.612536 0.188036
v 0.144286 0.612536 -0.188036
v 0.178700 0.612536 0.156452
v 0.201571 0.612536 0.129285
v 0.178700 0.612536 -0.156453
v 0.201572 0.453965 -0.129286
v 0.220737 0.612536 -0.096660
v 0.220737 0.453965 0.096660
v 0.213080 0.612536 0.104904
v 0.213080 0.612536 -0.104905
v 0.236736 0.612536 0.027106
v 0.232925 0.612536 0.046349
v 0.232925 0.612536 -0.046350
v 0.236736 0.453965 -0.027106
v 0.237000 0.612536 -0.000000
v 0.237000 0.295394 0.237000
v 0.237000 0.295394 0.237000
v 0.237000 0.295394 0.237000
v 0.237000 0.295394 -0.237000
v 0.237000 0.295394 -0.237000
v 0.237000 0.295394 -0.237000
v 0.237000 -0.497463 0.237000
v 0.237000 -0.497463 0.237000
v 0.237000 -0.497463 0.237000
v 0.237000 -0.497463 -0.237000
v 0.237000 -0.497463 -0.237000
v 0.237000 -0.497463 -0.237000
v 0.395000 0.453965 0.395000
v 0.395000 0.453965 0.395000
v 0.395000 0.453965 0.395000
v 0.395000 0.453965 -0.395000
v 0.395000 0.453965 -0.395000
v 0.395000 0.453965 -0.395000
v 0.395000 -0.497463 0.395000
v 0.395000 -0.497463 0.395000
v 0.395000 -0.497463 0.395000
v 0.395000 -0.497463 -0.395000
v 0.395000 -0.497463 -0.395000
v 0.395000 -0.497463 -0.395000
vn -0.0000 -1.0000 0.0000
vn 0.0000 -0.0000 -1.0000
vn 1.0000 0.0000 0.0000
vn 0.0000 0.0000 1.0000
vn -1.0000 -0.0000 -0.0000
vn 0.0000 1.0000 -0.0000
vn 0.9946 0.0247 0.1009
vn 0.8996 -0.0334 0.4355
vn 0.9946 -0.0247 -0.1009
vn 0.8197 0.0025 0.5728
vn 0.3692 -0.0330 0.9288
vn 0.4208 0.0226 0.9069
vn -0.0963 0.0020 0.9954
vn -0.4060 -0.0490 0.9126
vn -0.5728 0.0025 0.8197
vn -0.9288 -0.0330 0.3692
vn -0.9069 0.0226 0.4208
vn -0.9954 0.0020 -0.0963
vn -0.9244 -0.0413 -0.3791
vn -0.8272 0.0236 -0.5614
vn -0.5614 -0.0236 -0.8272
vn -0.3791 0.0413 -0.9244
vn -0.0963 -0.0020 -0.9954
vn 0.3692 0.0330 -0.9288
vn 0.4208 -0.0226 -0.9069
vn 0.8197 -0.0025 -0.5728
vn 0.8996 0.0334 -0.4355
usemtl (null)
s off
f 21//1 77//1 75//1
f 75//1 18//1 21//1
f 74//2 80//2 24//2
f 24//2 17//2 74//2
f 16//3 23//3 26//3
f 26//3 19//3 16//3
f 20//4 25//4 85//4
f 85//4 78//4 20//4
f 79//5 84//5 81//5
f 81//5 76//5 79//5
f 7//1 22//1 82//1
f 82//1 92//1 7//1
f 11//1 27//1 22//1
f 22//1 7//1 11//1
f 95//1 83//1 27//1
f 27//1 11//1 95//1
f 92//1 82//1 83//1
f 83//1 95//1 92//1
f 87//6 90//6 5//6
f 5//6 2//6 87//6
f 9//4 93//4 86//4
f 86//4 1//4 9//4
f 12//5 8//5 3//5
f 3//5 6//5 12//5
f 96//2 10//2 4//2
f 4//2 91//2 96//2
f 94//3 97//3 89//3
f 89//3 88//3 94//3
f 30//6 70//6 73//6
f 30//6 67//6 70//6
f 30//6 61//6 67//6
f 30//6 59//6 61//6
f 30//6 57//6 59//6
f 30//6 53//6 57//6
f 30//6 49//6 53//6
f 30//6 46//6 49//6
f 30//6 43//6 46//6
f 30//6 39//6 43//6
f 30//6 35//6 39//6
f 30//6 32//6 35//6
f 30//6 29//6 32//6
f 30//6 14//6 29//6
f 30//6 36//6 33//6
f 30//6 40//6 36//6
f 30//6 44//6 40//6
f 30//6 47//6 44//6
f 30//6 50//6 47//6
f 30//6 55//6 50//6
f 30//6 58//6 55//6
f 30//6 60//6 58//6
f 30//6 63//6 60//6
f 30//6 68//6 63//6
f 30//6 71//6 68//6
f 30//6 73//6 71//6
s 1
f 69//7 66//8 72//9
f 66//8 69//7 62//10
f 62//10 52//11 66//8
f 52//11 62//10 54//12
f 52//11 54//12 45//13
f 45//13 42//14 52//11
f 42//14 45//13 37//15
f 37//15 15//16 42//14
f 15//16 37//15 28//17
f 15//16 28//17 13//18
f 13//18 31//19 15//16
f 31//19 13//18 34//20
f 34//20 38//21 31//19
f 38//21 34//20 41//22
f 41//22 48//23 38//21
f 48//23 41//22 51//24
f 51//24 56//25 48//23
f 51//24 64//26 56//25
f 64//26 51//24 65//27
f 65//27 72//9 64//26
f 72//9 65//27 69//7
